<?xml version="1.0" encoding="UTF-8" standalone="no"?>
<!-- Created with Inkscape (http://www.inkscape.org/) -->

<svg
   xmlns:dc="http://purl.org/dc/elements/1.1/"
   xmlns:cc="http://creativecommons.org/ns#"
   xmlns:rdf="http://www.w3.org/1999/02/22-rdf-syntax-ns#"
   xmlns:svg="http://www.w3.org/2000/svg"
   xmlns="http://www.w3.org/2000/svg"
   xmlns:sodipodi="http://sodipodi.sourceforge.net/DTD/sodipodi-0.dtd"
   xmlns:inkscape="http://www.inkscape.org/namespaces/inkscape"
   version="1.1"
   id="svg2"
   xml:space="preserve"
   width="144"
   height="144"
   viewBox="0 0 144 144"
   sodipodi:docname="logo.svg"
   inkscape:export-filename="/home/sebk/Rust/pdf/view/logo.png"
   inkscape:export-xdpi="42.669998"
   inkscape:export-ydpi="42.669998"
   inkscape:version="0.92.3 (2405546, 2018-03-11)"><metadata
     id="metadata8"><rdf:RDF><cc:Work
         rdf:about=""><dc:format>image/svg+xml</dc:format><dc:type
           rdf:resource="http://purl.org/dc/dcmitype/StillImage" /><dc:title /></cc:Work></rdf:RDF></metadata><defs
     id="defs6" /><sodipodi:namedview
     pagecolor="#ffffff"
     bordercolor="#666666"
     borderopacity="1"
     objecttolerance="10"
     gridtolerance="10"
     guidetolerance="10"
     inkscape:pageopacity="0"
     inkscape:pageshadow="2"
     inkscape:window-width="1920"
     inkscape:window-height="1015"
     id="namedview4"
     showgrid="true"
     inkscape:zoom="9.2709556"
     inkscape:cx="47.658038"
     inkscape:cy="70.763164"
     inkscape:window-x="0"
     inkscape:window-y="0"
     inkscape:window-maximized="1"
     inkscape:current-layer="g12" /><g
     id="g10"
     inkscape:groupmode="layer"
     inkscape:label="logo"
     transform="matrix(1.3333333,0,0,1.3333333,0,3.6e-6)"><g
       id="g12"><path
         d="m 54.004,0.68 c -0.535,0 -1.031,0.277 -1.309,0.73 L 49.922,5.887 C 49.488,5.922 49.051,5.965 48.617,6.012 L 45.027,2.164 C 44.664,1.773 44.125,1.602 43.602,1.703 43.078,1.809 42.645,2.176 42.461,2.676 l -1.84,4.918 C 40.195,7.719 39.773,7.848 39.352,7.98 L 35.09,4.91 c -0.434,-0.312 -1,-0.379 -1.492,-0.172 -0.493,0.203 -0.844,0.649 -0.93,1.176 l -0.848,5.188 c -0.39,0.203 -0.777,0.41 -1.164,0.625 L 25.871,9.547 C 25.387,9.324 24.82,9.367 24.379,9.668 23.934,9.961 23.676,10.469 23.695,11 l 0.184,5.266 c -0.34,0.269 -0.676,0.55 -1.012,0.832 l -5.125,-1.211 c -0.519,-0.121 -1.066,0.035 -1.445,0.41 -0.379,0.379 -0.531,0.926 -0.41,1.445 l 1.207,5.129 c -0.278,0.332 -0.559,0.664 -0.828,1.008 L 11,23.695 C 10.473,23.68 9.965,23.934 9.668,24.379 9.371,24.82 9.324,25.387 9.547,25.875 l 2.18,4.781 c -0.211,0.387 -0.422,0.774 -0.625,1.168 L 5.914,32.668 C 5.391,32.75 4.945,33.102 4.738,33.598 4.535,34.09 4.602,34.656 4.914,35.086 L 7.98,39.348 C 7.848,39.77 7.719,40.191 7.598,40.617 l -4.922,1.84 c -0.496,0.188 -0.867,0.617 -0.969,1.145 -0.105,0.523 0.07,1.062 0.457,1.425 l 3.852,3.59 c -0.051,0.43 -0.09,0.867 -0.129,1.305 L 1.41,52.691 C 0.957,52.973 0.68,53.465 0.68,54 c 0,0.535 0.277,1.031 0.73,1.312 l 4.477,2.77 c 0.039,0.438 0.078,0.871 0.129,1.305 l -3.852,3.59 c -0.387,0.363 -0.562,0.902 -0.457,1.425 0.102,0.524 0.473,0.957 0.969,1.145 l 4.922,1.836 c 0.121,0.426 0.25,0.851 0.382,1.273 l -3.066,4.258 c -0.312,0.434 -0.379,1 -0.176,1.492 0.207,0.492 0.653,0.848 1.18,0.93 l 5.184,0.844 c 0.203,0.394 0.41,0.781 0.625,1.168 l -2.18,4.781 c -0.223,0.484 -0.176,1.051 0.121,1.496 0.297,0.445 0.805,0.703 1.332,0.684 l 5.262,-0.184 c 0.277,0.34 0.55,0.676 0.832,1.008 l -1.207,5.129 c -0.121,0.519 0.031,1.062 0.41,1.441 0.379,0.379 0.926,0.531 1.445,0.41 l 5.125,-1.207 c 0.336,0.282 0.672,0.559 1.012,0.828 L 23.695,97 c -0.019,0.531 0.239,1.039 0.684,1.336 0.441,0.297 1.008,0.34 1.492,0.117 l 4.785,-2.18 c 0.383,0.215 0.774,0.422 1.164,0.625 l 0.848,5.184 c 0.086,0.527 0.437,0.977 0.93,1.18 0.492,0.203 1.058,0.136 1.492,-0.176 l 4.258,-3.066 c 0.422,0.132 0.843,0.261 1.269,0.382 l 1.84,4.918 c 0.188,0.5 0.617,0.871 1.145,0.973 0.523,0.105 1.062,-0.07 1.425,-0.461 l 3.59,-3.848 c 0.434,0.047 0.867,0.09 1.305,0.129 l 2.769,4.477 c 0.282,0.453 0.778,0.73 1.313,0.73 0.531,0 1.027,-0.277 1.308,-0.73 l 2.77,-4.477 c 0.438,-0.039 0.875,-0.082 1.305,-0.129 l 3.59,3.848 c 0.363,0.391 0.902,0.566 1.425,0.461 0.524,-0.105 0.957,-0.473 1.145,-0.973 l 1.84,-4.918 c 0.425,-0.121 0.847,-0.25 1.269,-0.382 l 4.262,3.066 c 0.43,0.312 0.996,0.379 1.488,0.176 0.492,-0.203 0.848,-0.653 0.93,-1.18 l 0.848,-5.184 c 0.39,-0.203 0.777,-0.414 1.164,-0.625 l 4.781,2.18 c 0.488,0.223 1.051,0.18 1.496,-0.117 0.445,-0.297 0.703,-0.805 0.684,-1.336 l -0.184,-5.266 c 0.34,-0.273 0.676,-0.546 1.008,-0.828 l 5.129,1.207 c 0.519,0.121 1.066,-0.031 1.441,-0.41 0.379,-0.379 0.535,-0.922 0.41,-1.441 l -1.207,-5.129 c 0.282,-0.332 0.559,-0.668 0.832,-1.008 L 97,84.309 c 0.531,0.019 1.039,-0.239 1.336,-0.684 0.297,-0.445 0.34,-1.012 0.117,-1.496 l -2.18,-4.781 c 0.215,-0.387 0.422,-0.774 0.625,-1.168 l 5.188,-0.844 c 0.527,-0.082 0.973,-0.438 1.176,-0.93 0.203,-0.492 0.14,-1.058 -0.176,-1.492 l -3.066,-4.258 c 0.132,-0.422 0.261,-0.847 0.382,-1.273 l 4.922,-1.836 c 0.5,-0.188 0.867,-0.621 0.969,-1.145 0.105,-0.523 -0.07,-1.062 -0.461,-1.425 l -3.848,-3.59 c 0.047,-0.434 0.09,-0.871 0.129,-1.305 l 4.477,-2.77 c 0.453,-0.281 0.73,-0.777 0.73,-1.312 0,-0.531 -0.273,-1.027 -0.73,-1.309 l -4.477,-2.769 c -0.035,-0.438 -0.078,-0.875 -0.125,-1.305 l 3.848,-3.59 c 0.391,-0.363 0.562,-0.906 0.457,-1.425 -0.102,-0.528 -0.469,-0.957 -0.969,-1.145 l -4.918,-1.84 c -0.125,-0.426 -0.254,-0.847 -0.386,-1.269 l 3.066,-4.262 c 0.316,-0.43 0.379,-0.996 0.176,-1.488 -0.203,-0.493 -0.649,-0.844 -1.176,-0.93 l -5.188,-0.844 c -0.199,-0.394 -0.41,-0.781 -0.621,-1.168 l 2.18,-4.781 C 98.68,25.387 98.633,24.82 98.336,24.379 98.039,23.934 97.539,23.672 97,23.695 l -5.262,0.184 c -0.273,-0.344 -0.55,-0.68 -0.832,-1.008 l 1.207,-5.129 c 0.125,-0.519 -0.031,-1.066 -0.41,-1.445 -0.375,-0.375 -0.922,-0.531 -1.441,-0.41 l -5.125,1.211 C 84.805,16.816 84.465,16.535 84.125,16.266 L 84.309,11 C 84.332,10.469 84.07,9.961 83.625,9.668 83.18,9.367 82.617,9.324 82.133,9.547 l -4.785,2.18 C 76.961,11.516 76.574,11.305 76.184,11.102 L 75.34,5.914 C 75.254,5.387 74.902,4.941 74.406,4.738 73.914,4.535 73.352,4.602 72.918,4.91 L 68.652,7.98 C 68.234,7.844 67.812,7.719 67.387,7.594 L 65.547,2.676 C 65.359,2.176 64.93,1.809 64.402,1.703 63.879,1.602 63.34,1.773 62.977,2.164 l -3.59,3.848 C 58.957,5.965 58.52,5.922 58.086,5.887 L 55.312,1.41 C 55.031,0.957 54.539,0.68 54.004,0.68 Z"
         style="fill:#000000;fill-opacity:1;fill-rule:nonzero;stroke:none"
         id="path14"
         inkscape:connector-curvature="0" /><path
         d="M 92.340175,54 C 92.340175,75.175563 75.175563,92.340175 54,92.340175 32.824437,92.340175 15.659825,75.175563 15.659825,54 15.659825,32.824437 32.824437,15.659825 54,15.659825 75.175563,15.659825 92.340175,32.824437 92.340175,54 Z"
         style="fill:#ffffff;fill-opacity:1;fill-rule:nonzero;stroke:none"
         id="path16"
         inkscape:connector-curvature="0"
         sodipodi:nodetypes="sssss" /><g
         aria-label="PDF"
         transform="matrix(0.75000002,0,0,0.75000002,-2.2651387,0.22881087)"
         style="font-style:normal;font-variant:normal;font-weight:normal;font-stretch:normal;font-size:53.33333206px;line-height:1.25;font-family:'DejaVu Sans Mono';-inkscape-font-specification:'DejaVu Sans Mono';letter-spacing:0px;word-spacing:0px;fill:#000000;fill-opacity:1;stroke:none"
         id="flowRoot829"><path
           d="m 38.436198,59.746093 v 11.40625 h 3.151041 q 3.776042,0 5.286458,-1.276042 1.536459,-1.276041 1.536459,-4.427083 0,-3.151041 -1.536459,-4.427083 -1.510416,-1.276042 -5.286458,-1.276042 z M 30.753906,53.28776 h 10.546875 q 8.046875,0 11.5625,2.864583 3.541666,2.864584 3.541666,9.296875 0,6.432292 -3.541666,9.296875 -3.515625,2.864583 -11.5625,2.864583 h -2.864583 v 14.557292 h -7.682292 z"
           style="font-style:normal;font-variant:normal;font-weight:bold;font-stretch:normal;font-family:'DejaVu Sans Mono';-inkscape-font-specification:'DejaVu Sans Mono Bold'"
           id="path22" /><path
           d="m 69.894531,60.214843 v 25.026041 h 2.083333 q 4.53125,0 6.458333,-2.838541 1.927084,-2.864583 1.927084,-9.713542 0,-6.796874 -1.927084,-9.635416 -1.927083,-2.838542 -6.458333,-2.838542 z M 62.212239,53.28776 h 8.229167 q 9.53125,0 13.723958,4.557292 4.192708,4.53125 4.192708,14.843749 0,10.338542 -4.192708,14.921875 -4.192708,4.557292 -13.723958,4.557292 h -8.229167 z"
           style="font-style:normal;font-variant:normal;font-weight:bold;font-stretch:normal;font-family:'DejaVu Sans Mono';-inkscape-font-specification:'DejaVu Sans Mono Bold'"
           id="path24" /><path
           d="m 119.71224,60.058593 h -16.53646 v 8.385417 h 15.05208 v 6.770833 H 103.17578 V 92.167968 H 95.493489 V 53.28776 h 24.218751 z"
           style="font-style:normal;font-variant:normal;font-weight:bold;font-stretch:normal;font-family:'DejaVu Sans Mono';-inkscape-font-specification:'DejaVu Sans Mono Bold'"
           id="path26" /></g></g></g></svg>